<svg width="1500" height="1500" viewBox="0 0 1500 1500" fill="none" xmlns="http://www.w3.org/2000/svg">
<path d="M734.218 56.1059C735.082 56.1028 735.947 56.0997 736.838 56.0964C741.435 56.08 746.033 56.0697 750.631 56.0649C754.337 56.0601 758.042 56.0449 761.748 56.0195C794.095 55.8025 826.099 57.3659 858.125 62.2066C858.903 62.3215 859.681 62.4364 860.482 62.5548C935.678 73.6834 1007.17 97.6746 1075.07 131.544C1076.05 132.031 1077.03 132.518 1078.04 133.019C1103.98 146.039 1128.6 161.539 1152.48 177.999C1153.25 178.532 1154.02 179.064 1154.82 179.613C1188.42 202.914 1220.08 229.526 1248.68 258.742C1243.28 265.254 1237.46 271.229 1231.47 277.2C1230.4 278.269 1229.33 279.339 1228.26 280.409C1225.34 283.332 1222.42 286.252 1219.5 289.172C1216.34 292.326 1213.18 295.484 1210.03 298.642C1204.56 304.107 1199.1 309.57 1193.63 315.031C1185.73 322.928 1177.83 330.827 1169.93 338.728C1157.11 351.546 1144.29 364.362 1131.47 377.177C1119.01 389.623 1106.56 402.069 1094.11 414.518C1093.34 415.286 1092.58 416.053 1091.79 416.844C1087.93 420.696 1084.08 424.548 1080.23 428.4C1048.29 460.337 1016.34 492.27 984.395 524.2C980.9 522.54 978.684 520.883 976.032 518.048C970.712 512.609 964.934 507.882 958.961 503.185C958.275 502.641 957.589 502.097 956.882 501.537C904.858 460.443 838.904 432.507 771.863 432.172C770.821 432.164 769.779 432.156 768.705 432.148C765.36 432.129 762.016 432.122 758.671 432.12C757.528 432.119 756.385 432.118 755.208 432.117C738.459 432.135 722.231 432.609 705.73 435.714C704.682 435.898 703.635 436.082 702.555 436.272C669.584 442.122 637.97 453.192 608.418 468.897C607.65 469.296 606.882 469.696 606.09 470.108C583.988 481.643 564.156 496.234 545.759 513.01C543.431 515.12 541.068 517.177 538.683 519.223C480.218 570.274 446.238 650.764 440.571 726.99C440.145 734.281 440.064 741.571 440.058 748.872C440.058 749.688 440.057 750.503 440.056 751.343C440.129 802.356 452.631 853.086 476.827 898.054C477.242 898.841 477.658 899.628 478.086 900.439C487.455 918.142 498.544 934.455 511.107 950.039C511.574 950.622 512.042 951.205 512.523 951.806C526.047 968.522 541.436 984.682 558.657 997.601C559.965 998.62 561.273 999.642 562.579 1000.66C588.779 1020.97 618.139 1037.25 649.334 1048.48C650.134 1048.78 650.934 1049.07 651.758 1049.38C731.119 1078.49 819.744 1071.6 895.861 1036.38C928.524 1020.78 956.702 998.638 983.289 974.373C989.799 979.776 995.773 985.601 1001.74 991.591C1002.81 992.66 1003.88 993.729 1004.95 994.798C1007.87 997.719 1010.79 1000.64 1013.71 1003.57C1016.86 1006.73 1020.02 1009.88 1023.18 1013.04C1028.64 1018.5 1034.1 1023.97 1039.56 1029.44C1047.46 1037.34 1055.36 1045.25 1063.26 1053.15C1076.07 1065.97 1088.88 1078.79 1101.7 1091.62C1114.14 1104.07 1126.58 1116.53 1139.03 1128.98C1139.79 1129.75 1140.56 1130.52 1141.35 1131.31C1145.2 1135.16 1149.06 1139.02 1152.91 1142.87C1184.84 1174.82 1216.76 1206.77 1248.68 1238.72C1244.8 1246.94 1237.01 1252.79 1230.2 1258.63C1227.6 1260.91 1225.08 1263.25 1222.55 1265.61C1216.7 1271.08 1210.76 1276.34 1204.5 1281.36C1201.96 1283.41 1199.44 1285.48 1196.94 1287.59C1139.85 1335.41 1073.61 1372.32 1004.3 1399.11C1003.1 1399.57 1001.9 1400.04 1000.66 1400.52C939.215 1424.09 873.064 1437.84 807.465 1442.24C805.412 1442.39 805.412 1442.39 803.317 1442.54C788.396 1443.52 773.481 1443.57 758.533 1443.56C757.209 1443.56 755.886 1443.55 754.523 1443.55C734.476 1443.53 714.63 1443.17 694.672 1441.14C693.228 1440.99 691.784 1440.85 690.297 1440.7C640.225 1435.68 591.068 1425.69 543.175 1410.17C541.187 1409.52 541.187 1409.52 539.158 1408.87C471.239 1386.66 405.797 1353.53 348.552 1310.62C347.762 1310.03 346.971 1309.44 346.157 1308.83C321.729 1290.49 297.601 1271.15 276.208 1249.28C274.387 1247.5 272.479 1245.89 270.523 1244.26C263.89 1238.53 258.123 1231.92 252.201 1225.48C250.163 1223.27 248.108 1221.08 246.044 1218.9C239.485 1211.96 233.105 1204.98 227.142 1197.51C224.872 1194.69 222.546 1191.94 220.191 1189.2C214.513 1182.57 209.119 1175.8 203.979 1168.74C202.991 1167.39 202 1166.04 201.006 1164.68C149.347 1094.51 110.822 1016.5 67.6759 826.159C67.5928 825.431 67.5097 824.703 67.424 823.953C64.6766 799.823 64.0404 775.725 64.0156 751.457C64.013 749.264 64.007 747.071 64.0009 744.879C63.9614 718.354 65.1877 691.9 68.5053 665.571C68.5971 664.833 68.6889 664.096 68.7835 663.336C74.2898 619.446 83.9202 576.241 97.5329 534.155C97.9557 532.841 98.3785 531.527 98.8142 530.173C125.142 449.143 167.615 372.57 222.49 307.41C223.447 306.259 224.405 305.108 225.362 303.958C231.743 296.318 238.333 288.917 245.108 281.626C246.384 280.232 247.644 278.823 248.896 277.408C255.452 270.009 262.32 262.976 269.319 256.001C271.22 254.106 273.115 252.204 275.009 250.302C281.277 244.029 287.606 237.94 294.368 232.197C296.145 230.588 297.92 228.975 299.689 227.357C305.494 222.125 311.503 217.186 317.59 212.287C318.83 211.277 320.069 210.266 321.309 209.254C350.871 185.229 382.727 163.37 416.007 144.817C417.657 143.895 417.657 143.895 419.34 142.954C499.048 98.6776 586.722 69.9496 700.201 57.4367C701.331 57.3401 702.46 57.2435 703.624 57.144C713.83 56.3392 723.988 56.1315 734.218 56.1059Z" fill="#55A6D9"/>
<path d="M983.52 973.942C990.024 979.351 995.993 985.181 1001.96 991.177C1003.03 992.247 1004.09 993.316 1005.16 994.386C1008.08 997.309 1011 1000.24 1013.92 1003.16C1017.07 1006.33 1020.22 1009.49 1023.38 1012.65C1028.83 1018.11 1034.29 1023.59 1039.75 1029.06C1047.63 1036.97 1055.53 1044.88 1063.42 1052.79C1076.22 1065.62 1089.02 1078.46 1101.82 1091.3C1114.26 1103.76 1126.69 1116.23 1139.12 1128.69C1140.27 1129.85 1140.27 1129.85 1141.45 1131.02C1145.29 1134.88 1149.14 1138.74 1152.99 1142.59C1184.89 1174.57 1216.79 1206.55 1248.68 1238.54C1244.81 1246.76 1237.02 1252.62 1230.22 1258.46C1227.62 1260.74 1225.1 1263.09 1222.57 1265.45C1216.72 1270.92 1210.79 1276.19 1204.54 1281.21C1202 1283.26 1199.48 1285.34 1196.98 1287.44C1139.94 1335.31 1073.77 1372.25 1004.51 1399.07C1003.31 1399.53 1002.11 1400 1000.87 1400.48C939.484 1424.07 873.39 1437.84 807.848 1442.24C806.48 1442.34 805.113 1442.44 803.704 1442.54C788.796 1443.52 773.894 1443.57 758.958 1443.56C757.636 1443.56 756.314 1443.56 754.952 1443.55C734.923 1443.53 715.093 1443.17 695.153 1441.13C693.71 1440.99 692.268 1440.85 690.782 1440.7C640.753 1435.67 591.639 1425.67 543.788 1410.14C542.463 1409.71 541.139 1409.28 539.774 1408.84C471.914 1386.61 406.529 1353.45 349.334 1310.5C348.544 1309.91 347.754 1309.31 346.94 1308.7C322.524 1290.34 298.44 1270.97 277.039 1249.09C274.03 1246.14 268.127 1240.75 268.127 1240.75C268.127 1240.75 401.451 1101.85 521.783 981.274C525.527 983.043 532.187 986.129 539.123 990.291C541.8 991.897 546.882 994.649 549.527 995.146C553.734 995.937 555.445 994.209 559.256 997.191C559.892 997.692 560.529 998.193 561.185 998.709C587.967 1019.68 617.844 1036.57 649.854 1048.12C650.653 1048.41 651.453 1048.71 652.276 1049.01C731.569 1078.16 820.116 1071.25 896.167 1036.01C928.802 1020.39 956.956 998.229 983.52 973.942Z" fill="#A9DEEC"/>
<path d="M734.375 56.106C735.239 56.1028 736.104 56.0997 736.994 56.0965C741.59 56.08 746.187 56.0697 750.783 56.0649C754.488 56.0601 758.192 56.0449 761.897 56.0195C794.234 55.8025 826.228 57.3664 858.244 62.2088C859.022 62.3237 859.8 62.4387 860.601 62.5571C935.773 73.6895 1007.25 97.6891 1075.12 131.57C1076.1 132.057 1077.08 132.544 1078.09 133.046C1104.02 146.07 1128.64 161.576 1152.51 178.041C1153.28 178.574 1154.05 179.107 1154.85 179.656C1188.44 202.965 1220.09 229.586 1248.68 258.813C1243.28 265.326 1237.46 271.304 1231.48 277.277C1230.41 278.347 1229.34 279.417 1228.27 280.487C1225.35 283.411 1222.43 286.332 1219.51 289.253C1216.35 292.409 1213.19 295.568 1210.04 298.726C1204.58 304.193 1199.11 309.658 1193.65 315.122C1185.75 323.021 1177.85 330.923 1169.95 338.826C1157.14 351.649 1144.32 364.47 1131.5 377.289C1119.05 389.739 1106.61 402.19 1094.16 414.643C1093.39 415.411 1092.62 416.179 1091.83 416.97C1087.98 420.823 1084.13 424.676 1080.28 428.529C1048.35 460.478 1016.41 492.422 984.476 524.363C980.982 522.702 978.766 521.045 976.116 518.209C970.797 512.768 965.021 508.039 959.05 503.341C958.364 502.797 957.678 502.253 956.971 501.692C904.963 460.583 839.029 432.638 772.008 432.302C770.967 432.295 769.925 432.287 768.852 432.279C765.508 432.26 762.164 432.253 758.82 432.251C757.678 432.25 756.535 432.249 755.358 432.248C738.615 432.266 722.392 432.74 705.896 435.847C704.848 436.031 703.801 436.215 702.722 436.404C669.761 442.257 638.156 453.33 608.614 469.04C607.846 469.44 607.078 469.84 606.286 470.252C582.031 482.919 560.895 499.332 540.851 517.859C540.071 518.568 539.29 519.276 538.485 520.007C537.461 520.95 537.461 520.95 536.417 521.913C534.547 523.257 532.889 524.917 531.23 523.257C529.131 521.568 529.131 521.568 526.713 519.144C525.79 518.227 524.867 517.31 523.916 516.365C522.902 515.34 521.888 514.315 520.843 513.26C519.756 512.173 518.668 511.087 517.579 510.001C514.579 507.006 511.59 504.001 508.602 500.994C505.382 497.756 502.152 494.529 498.924 491.3C493.329 485.701 487.739 480.097 482.154 474.488C474.079 466.378 465.994 458.278 457.907 450.18C444.789 437.042 431.677 423.897 418.57 410.747C405.836 397.971 393.098 385.198 380.355 372.429C379.57 371.643 378.785 370.856 377.976 370.046C374.038 366.1 370.1 362.154 366.161 358.208C333.473 325.456 300.796 292.692 268.127 259.919C269.657 256.736 271.117 254.44 273.628 251.945C274.274 251.3 274.92 250.655 275.586 249.99C276.613 248.983 276.613 248.983 277.662 247.956C278.715 246.913 278.715 246.913 279.79 245.85C283.927 241.78 288.119 237.814 292.547 234.06C295.076 231.901 297.523 229.66 299.978 227.417C305.781 222.183 311.788 217.242 317.873 212.342C319.113 211.331 320.352 210.319 321.591 209.307C351.144 185.274 382.991 163.408 416.261 144.848C417.91 143.925 417.91 143.925 419.592 142.985C499.277 98.6925 586.923 69.9545 700.368 57.4372C702.062 57.2922 702.062 57.2922 703.791 57.1444C713.993 56.3393 724.148 56.1316 734.375 56.106Z" fill="#5E70B5"/>
<circle cx="758.634" cy="750.296" r="419.635" fill="white"/>
<path fill-rule="evenodd" clip-rule="evenodd" d="M925.632 489.57C856.056 489.57 800.008 526.894 757.987 575.382C717.156 525.232 661.212 489.57 591.636 489.57C493.65 489.57 424.639 571.35 424.639 660.547C424.639 708.387 444.825 742.833 466.931 775.213C466.931 775.213 694.298 1058.26 726.466 1077.25C758.634 1096.23 759.051 1096.64 790.217 1077.25C821.383 1057.86 1050.34 775.213 1050.34 775.213C1076.35 742.833 1092.63 708.387 1092.63 660.547C1092.63 571.35 1023.62 489.57 925.632 489.57Z" fill="#F67A7A"/>
<g filter="url(#filter0_d_300_3436)">
<path d="M528.354 770.589H653.175L712.93 674.147L758.854 764.677L804.779 855.207L844.745 770.589H989.794" stroke="white" stroke-width="40"/>
</g>
<defs>
<filter id="filter0_d_300_3436" x="524.354" y="633.367" width="469.44" height="275.313" filterUnits="userSpaceOnUse" color-interpolation-filters="sRGB">
<feFlood flood-opacity="0" result="BackgroundImageFix"/>
<feColorMatrix in="SourceAlpha" type="matrix" values="0 0 0 0 0 0 0 0 0 0 0 0 0 0 0 0 0 0 127 0" result="hardAlpha"/>
<feOffset dy="4"/>
<feGaussianBlur stdDeviation="2"/>
<feComposite in2="hardAlpha" operator="out"/>
<feColorMatrix type="matrix" values="0 0 0 0 0 0 0 0 0 0 0 0 0 0 0 0 0 0 0.25 0"/>
<feBlend mode="normal" in2="BackgroundImageFix" result="effect1_dropShadow_300_3436"/>
<feBlend mode="normal" in="SourceGraphic" in2="effect1_dropShadow_300_3436" result="shape"/>
</filter>
</defs>
</svg>
