<?xml version="1.0" encoding="UTF-8"?>
<svg version="1.1" xmlns="http://www.w3.org/2000/svg" width="512" height="565">
<path d="M0 0 C1.0113501 0.01160156 2.0227002 0.02320312 3.06469727 0.03515625 C24.85493768 0.51286604 41.99594457 12.64391978 60.32092285 23.32795715 C66.67136841 27.02747718 73.05350601 30.67125568 79.4375 34.3125 C80.61103313 34.9823684 81.78453564 35.65229044 82.95800781 36.32226562 C85.31529276 37.66804607 87.67272924 39.01356049 90.03027344 40.35888672 C96.45853046 44.02751603 102.88397645 47.70106773 109.30993652 51.37371826 C111.0581693 52.37287414 112.80642088 53.37199709 114.5546875 54.37109375 C115.13178467 54.70089233 115.70888184 55.03069092 116.3034668 55.3704834 C119.82298502 57.3816016 123.34315826 59.39156815 126.86383057 61.40066528 C139.85353355 68.81339663 152.82822044 76.25111088 165.77832031 83.73291016 C173.65306685 88.27987977 181.54111857 92.80323691 189.4375 97.3125 C190.01788025 97.64394012 190.5982605 97.97538025 191.19622803 98.31686401 C195.31786978 100.67036276 199.44011551 103.02280253 203.5625 105.375 C208.2712491 108.06177211 212.97972918 110.74901405 217.6875 113.4375 C218.55831207 113.93478104 218.55831207 113.93478104 219.44671631 114.44210815 C228.90627713 119.84529329 238.34550545 125.28318945 247.77832031 130.73291016 C259.173959 137.31288357 270.60139357 143.83691372 282.03027344 150.35888672 C288.45853046 154.02751603 294.88397645 157.70106773 301.30993652 161.37371826 C303.0581693 162.37287414 304.80642088 163.37199709 306.5546875 164.37109375 C307.13178467 164.70089233 307.70888184 165.03069092 308.3034668 165.3704834 C311.82298502 167.3816016 315.34315826 169.39156815 318.86383057 171.40066528 C331.84698179 178.80965779 344.8157436 186.24256457 357.75854492 193.72192383 C365.22575836 198.03436012 372.70702292 202.32149571 380.19628906 206.59545898 C384.26063459 208.91534868 388.3232926 211.23819309 392.38623047 213.56054688 C394.40543924 214.71402571 396.42523043 215.86648606 398.44580078 217.01757812 C421.63723205 230.23606088 440.15653292 242.14354465 448.10668945 269.22900391 C450.74214421 281.63695639 449.70527762 296.80375035 444.5625 308.375 C444.211875 309.23609375 443.86125 310.0971875 443.5 310.984375 C436.33888909 326.99741467 422.93080167 336.48146484 407.9375 344.5 C405.52853609 345.8088474 403.12365993 347.12512818 400.71875 348.44140625 C400.11537811 348.77057541 399.51200623 349.09974457 398.89035034 349.43888855 C393.0056302 352.65783037 387.21616899 356.03223009 381.4375 359.4375 C373.36629246 364.18362088 365.24426079 368.82210271 357.0625 373.375 C345.74143426 379.67801306 334.54291469 386.17630712 323.36669922 392.73193359 C319.00057827 395.29017789 314.62690732 397.835264 310.25 400.375 C309.52828613 400.79547607 308.80657227 401.21595215 308.06298828 401.64916992 C303.249123 404.44085594 298.382998 407.12555949 293.49291992 409.78125 C278.40005866 417.98971441 263.43227968 426.3921965 248.62426758 435.10351562 C240.03823878 440.13775214 231.34301793 444.96140364 222.62890625 449.76953125 C215.21303683 453.87246932 207.86719133 458.07755211 200.5625 462.375 C192.13027394 467.33579169 183.62829665 472.14864413 175.0625 476.875 C165.45433937 482.17706842 155.94070912 487.61460957 146.48046875 493.17578125 C138.35438766 497.94193713 130.14490211 502.54697811 121.91308594 507.12744141 C114.7859156 511.10336053 107.72295222 515.17673218 100.6875 519.3125 C91.09651348 524.94831026 81.40396401 530.37893045 71.66235352 535.74951172 C62.94823101 540.56757614 54.33327458 545.53915821 45.77734375 550.6328125 C25.40465435 562.6764964 6.1047953 569.49191262 -17.5625 563.75 C-34.52410994 558.45990137 -48.22337086 547.38671306 -57.0859375 532.03125 C-61.46510632 523.42479105 -63.59148662 515.22429991 -63.57172108 505.59925938 C-63.57407331 504.81934424 -63.57642554 504.0394291 -63.57884905 503.23588017 C-63.58552568 500.61277028 -63.58508123 497.98971007 -63.58467102 495.36659241 C-63.58797048 493.47072109 -63.59169623 491.57485048 -63.5958125 489.67898077 C-63.60583136 484.46117952 -63.60954912 479.24338979 -63.61220181 474.02558029 C-63.61610523 468.40093934 -63.62568358 462.7763075 -63.63441467 457.15167236 C-63.65417861 443.56365633 -63.66424547 429.97563955 -63.67314246 416.38761273 C-63.67752571 409.98835731 -63.68289245 403.58910271 -63.68813133 397.18984795 C-63.70514398 375.91620185 -63.71966271 354.6425567 -63.72688007 333.36890507 C-63.72735483 331.99327748 -63.72783072 330.61764989 -63.72830774 329.2420223 C-63.7286623 328.21875779 -63.7286623 328.21875779 -63.72902403 327.17482127 C-63.7302252 323.71867967 -63.73144066 320.26253808 -63.73266602 316.80639648 C-63.73290617 316.12051906 -63.73314632 315.43464164 -63.73339374 314.72798005 C-63.74128326 292.49989249 -63.76470778 270.27185834 -63.79722196 248.04379409 C-63.83154873 224.53355126 -63.85123277 201.02335121 -63.85452431 177.51307958 C-63.85668886 164.70125741 -63.86542953 151.88951373 -63.89098549 139.07771492 C-63.91270134 128.16584366 -63.92073851 117.25406996 -63.91101871 106.34217954 C-63.90647656 100.77692683 -63.90835556 95.21187538 -63.92778015 89.64665031 C-63.94543037 84.54562018 -63.94439882 79.44493788 -63.92888286 74.34390395 C-63.92650963 72.5046467 -63.93081545 70.66536525 -63.94271151 68.82614494 C-64.06148943 49.23907799 -59.75103046 33.35603476 -45.88671875 18.69140625 C-32.91407061 6.42221909 -17.8730899 -0.26458607 0 0 Z " fill="#4284F3" transform="translate(63.4375,-0.375)"/>
<path d="M0 0 C3.54434427 1.34455698 6.80799193 2.91228344 10.11328125 4.765625 C11.10110596 5.31847168 12.08893066 5.87131836 13.10668945 6.44091797 C14.69356567 7.33641357 14.69356567 7.33641357 16.3125 8.25 C17.42262451 8.87406738 18.53274902 9.49813477 19.67651367 10.14111328 C28.08873547 14.8853086 36.44194898 19.72679176 44.77368164 24.61083984 C52.40470761 29.08119198 60.06883757 33.49155603 67.75 37.875 C68.92399722 38.54564321 70.09798809 39.21629753 71.27197266 39.88696289 C76.69181797 42.98145972 82.11600532 46.06796782 87.55015564 49.13728333 C140.00764845 78.77078614 140.00764845 78.77078614 148.54418945 107.85400391 C151.17964421 120.26195639 150.14277762 135.42875035 145 147 C144.649375 147.86109375 144.29875 148.7221875 143.9375 149.609375 C136.77638909 165.62241467 123.36830167 175.10646484 108.375 183.125 C105.96603609 184.4338474 103.56115993 185.75012818 101.15625 187.06640625 C100.55287811 187.39557541 99.94950623 187.72474457 99.32785034 188.06388855 C93.4431302 191.28283037 87.65366899 194.65723009 81.875 198.0625 C73.80379246 202.80862088 65.68176079 207.44710271 57.5 212 C46.17893426 218.30301306 34.98041469 224.80130712 23.80419922 231.35693359 C19.43807827 233.91517789 15.06440732 236.460264 10.6875 239 C9.96578613 239.42047607 9.24407227 239.84095215 8.50048828 240.27416992 C3.686623 243.06585594 -1.179502 245.75055949 -6.06958008 248.40625 C-21.16244134 256.61471441 -36.13022032 265.0171965 -50.93823242 273.72851562 C-59.52426122 278.76275214 -68.21948207 283.58640364 -76.93359375 288.39453125 C-84.34946317 292.49746932 -91.69530867 296.70255211 -99 301 C-107.43222606 305.96079169 -115.93420335 310.77364413 -124.5 315.5 C-134.10816063 320.80206842 -143.62179088 326.23960957 -153.08203125 331.80078125 C-161.20811234 336.56693713 -169.41759789 341.17197811 -177.64941406 345.75244141 C-184.7765844 349.72836053 -191.83954778 353.80173218 -198.875 357.9375 C-208.46598652 363.57331026 -218.15853599 369.00393045 -227.90014648 374.37451172 C-236.61426899 379.19257614 -245.22922542 384.16415821 -253.78515625 389.2578125 C-274.15784565 401.3014964 -293.4577047 408.11691262 -317.125 402.375 C-335.19060409 396.7405804 -349.23964776 384.67378221 -358 368 C-361.10582123 361.42695289 -361.10582123 361.42695289 -360.85816956 358.08747864 C-359.61302243 355.05868554 -357.64806634 353.28202152 -355.33178711 350.9753418 C-354.84705933 350.48856964 -354.36233154 350.00179749 -353.86291504 349.50027466 C-352.25821861 347.89257048 -350.6430298 346.29587242 -349.02734375 344.69921875 C-347.90392192 343.57885728 -346.78109231 342.45790169 -345.65882874 341.33638 C-343.30190076 338.98405658 -340.94014945 336.63672733 -338.57446289 334.29321289 C-335.56083724 331.30770659 -332.55580069 328.3137465 -329.55396175 325.31639385 C-326.67322391 322.44085034 -323.78783759 319.56998829 -320.90234375 316.69921875 C-320.36045851 316.15921423 -319.81857327 315.61920971 -319.26026726 315.06284142 C-317.70070602 313.51026146 -316.13784026 311.96108463 -314.57397461 310.4128418 C-313.68874619 309.53444138 -312.80351776 308.65604095 -311.89146423 307.75102234 C-309.6657993 305.63346063 -307.41802108 303.60793661 -305.09632874 301.60029602 C-301.19550299 298.21242025 -297.5213902 294.65015903 -293.88476562 290.98242188 C-293.22345139 290.31964737 -292.56213715 289.65687286 -291.88078308 288.97401428 C-290.45945143 287.54890652 -289.03927499 286.12264582 -287.62016296 284.69532776 C-285.36820944 282.43049183 -283.11304304 280.1688985 -280.85705566 277.90808105 C-276.06854507 273.10819934 -271.28397981 268.30439696 -266.5 263.5 C-260.951873 257.9281946 -255.40209855 252.358051 -249.84806824 246.79212952 C-247.63707313 244.57469922 -245.42913559 242.35425586 -243.22131348 240.13366699 C-241.85277027 238.76148793 -240.48408459 237.38945093 -239.11523438 236.01757812 C-238.51136398 235.40854141 -237.90749359 234.7995047 -237.2853241 234.17201233 C-233.64339272 230.5296383 -229.8655801 227.11357078 -225.97048187 223.74463654 C-222.81430871 220.95020585 -219.85188485 217.97492584 -216.88476562 214.98242188 C-216.22345139 214.31964737 -215.56213715 213.65687286 -214.88078308 212.97401428 C-213.45945143 211.54890652 -212.03927499 210.12264582 -210.62016296 208.69532776 C-208.36820944 206.43049183 -206.11304304 204.1688985 -203.85705566 201.90808105 C-199.06854507 197.10819934 -194.28397981 192.30439696 -189.5 187.5 C-183.951873 181.9281946 -178.40209855 176.358051 -172.84806824 170.79212952 C-170.63707313 168.57469922 -168.42913559 166.35425586 -166.22131348 164.13366699 C-164.85277027 162.76148793 -163.48408459 161.38945093 -162.11523438 160.01757812 C-161.51136398 159.40854141 -160.90749359 158.7995047 -160.2853241 158.17201233 C-156.63431073 154.52055521 -152.84744892 151.09392797 -148.94248199 147.71663666 C-145.95522012 145.07669289 -143.14874852 142.27241642 -140.34375 139.44140625 C-139.73120361 138.8273996 -139.11865723 138.21339294 -138.48754883 137.58078003 C-137.17261989 136.26207848 -135.85884605 134.94222428 -134.54614258 133.62130737 C-132.46222167 131.52448784 -130.37507491 129.43092634 -128.28710938 127.33813477 C-123.85524306 122.89490518 -119.4273267 118.44775238 -115 114 C-109.86490934 108.84121836 -104.72816349 103.68410748 -99.5871582 98.53121948 C-97.54235237 96.47998551 -95.50060936 94.42573709 -93.45898438 92.37133789 C-92.19155632 91.10027351 -90.92398552 89.82935146 -89.65625 88.55859375 C-89.0991333 87.99631073 -88.5420166 87.43402771 -87.96801758 86.85470581 C-85.07407729 83.96038628 -82.11392532 81.19654599 -79.01820374 78.51820374 C-75.19973319 75.2124415 -71.60700231 71.73595649 -68.05249023 68.15014648 C-67.40907684 67.50527283 -66.76566345 66.86039917 -66.10275269 66.19598389 C-64.72070591 64.81016246 -63.33981429 63.4231882 -61.95998955 62.03515434 C-59.77132078 59.83360136 -57.57943789 57.63529309 -55.38673401 55.4377594 C-50.73416217 50.77381962 -46.08554104 46.10595457 -41.4375 41.4375 C-36.04378784 36.02011899 -30.64843168 30.60439663 -25.24882698 25.19288826 C-23.09817312 23.03579168 -20.9505731 20.87568673 -18.80308533 18.71543884 C-17.47491139 17.38362985 -16.14659543 16.05196248 -14.81811523 14.72045898 C-14.22935104 14.12652847 -13.64058685 13.53259796 -13.03398132 12.92066956 C-9.62657461 9.51283528 -6.11572044 6.32889356 -2.38920689 3.27154636 C-0.86546338 2.02911807 -0.86546338 2.02911807 0 0 Z " fill="#E94335" transform="translate(363,161)"/>
<path d="M0 0 C1.0113501 0.01160156 2.0227002 0.02320312 3.06469727 0.03515625 C24.85493768 0.51286604 41.99594457 12.64391978 60.32092285 23.32795715 C66.67136841 27.02747718 73.05350601 30.67125568 79.4375 34.3125 C80.61103313 34.9823684 81.78453564 35.65229044 82.95800781 36.32226562 C85.31529276 37.66804607 87.67272924 39.01356049 90.03027344 40.35888672 C96.45853046 44.02751603 102.88397645 47.70106773 109.30993652 51.37371826 C111.0581693 52.37287414 112.80642088 53.37199709 114.5546875 54.37109375 C115.13178467 54.70089233 115.70888184 55.03069092 116.3034668 55.3704834 C119.82298502 57.3816016 123.34315826 59.39156815 126.86383057 61.40066528 C139.85353355 68.81339663 152.82822044 76.25111088 165.77832031 83.73291016 C173.65306685 88.27987977 181.54111857 92.80323691 189.4375 97.3125 C190.01788025 97.64394012 190.5982605 97.97538025 191.19622803 98.31686401 C195.31786978 100.67036276 199.44011551 103.02280253 203.5625 105.375 C208.2712491 108.06177211 212.97972918 110.74901405 217.6875 113.4375 C218.55831207 113.93478104 218.55831207 113.93478104 219.44671631 114.44210815 C228.89602131 119.83943529 238.32521856 125.27108865 247.74755859 130.71533203 C259.21003931 137.33441267 270.70464951 143.89682415 282.20117188 150.45654297 C287.98965811 153.76028533 293.77602209 157.06774171 299.5625 160.375 C298.98756865 163.73446602 298.0213238 165.24640599 295.5020752 167.51184082 C294.86231499 168.09705254 294.22255478 168.68226425 293.5634079 169.28520966 C292.86765907 169.90845375 292.17191025 170.53169785 291.45507812 171.17382812 C289.98066896 172.52477488 288.50813977 173.87777586 287.03735352 175.23266602 C286.28741119 175.92228424 285.53746887 176.61190247 284.76480103 177.32241821 C281.43694207 180.42403902 278.210327 183.62117512 274.99804688 186.84179688 C274.06373211 187.77770535 274.06373211 187.77770535 273.1105423 188.73252106 C271.82702571 190.02059252 270.54445647 191.30960863 269.26280212 192.59953308 C267.21194982 194.6634931 265.15768762 196.72400996 263.10266113 198.78381348 C258.75305143 203.14466836 254.40747595 207.50952888 250.0625 211.875 C244.99027297 216.97098387 239.91632124 222.06522766 234.83815002 227.1552887 C232.82877063 229.17107778 230.82245799 231.18988369 228.81628418 233.2088623 C223.45552534 238.5909898 218.11860736 243.91501569 212.32653809 248.83804321 C208.9870319 251.74766106 205.89951452 254.91589478 202.78125 258.05859375 C202.08229614 258.75896255 201.38334229 259.45933136 200.66320801 260.18092346 C198.46058461 262.38908458 196.26148919 264.60072037 194.0625 266.8125 C192.55752492 268.32249814 191.05231865 269.8322659 189.546875 271.34179688 C185.88274171 275.01687641 182.2217652 278.69507356 178.5625 282.375 C174.76281599 280.60472834 172.37152156 278.39987678 169.421875 275.39453125 C168.93599915 274.90345383 168.45012329 274.4123764 167.94952393 273.90641785 C166.39899697 272.33814352 164.85530844 270.76336518 163.3125 269.1875 C161.78319069 267.63030129 160.25235053 266.0746917 158.71832275 264.5221405 C157.31501463 263.10118497 155.91663111 261.67537088 154.51855469 260.24926758 C152.37070447 258.11098635 150.13346082 256.11925981 147.83392334 254.14543152 C143.81334714 250.63989793 140.01872051 246.96003748 136.26367188 243.17382812 C135.58285049 242.49154648 134.90202911 241.80926483 134.20057678 241.10630798 C132.73668396 239.6386378 131.27394641 238.16981458 129.81227112 236.69993591 C127.49310487 234.36789308 125.17073041 232.03908732 122.84753418 229.71105957 C117.08090232 223.93112674 111.31974766 218.14574443 105.55841064 212.36053467 C100.6795549 207.46188544 95.79861392 202.56533173 90.91493225 197.67149353 C88.63746126 195.38758482 86.36304594 193.10066354 84.08874512 190.81359863 C82.67975586 189.40097368 81.27062422 187.98849071 79.86132812 186.57617188 C78.92747032 185.63456459 78.92747032 185.63456459 77.9747467 184.67393494 C74.93009192 181.62892054 71.83237703 178.70259204 68.57397461 175.88647461 C64.56535501 172.42054937 60.81090686 168.75111997 57.08007812 164.99023438 C56.3797496 164.28844559 55.67942108 163.5866568 54.95787048 162.86360168 C53.45141646 161.35336912 51.94611774 159.84198341 50.44187927 158.32954407 C48.05550047 155.93029417 45.66591784 153.53427612 43.2755127 151.13903809 C37.34193125 145.19215228 31.41382466 139.23981855 25.48553467 133.28765869 C20.46575699 128.24809135 15.44389667 123.21061663 10.41929626 118.17585754 C8.07534929 115.82547046 5.73445622 113.4720713 3.39367676 111.11853027 C1.94424145 109.66545943 0.49466386 108.21253049 -0.95507812 106.75976562 C-1.59635147 106.11332596 -2.23762482 105.46688629 -2.89833069 104.80085754 C-6.6713829 101.0273719 -10.56681279 97.4587769 -14.60454178 93.97037125 C-21.61946361 87.86471949 -28.16749967 81.18240765 -34.7999897 74.66457558 C-37.45223465 72.05878757 -40.1142826 69.46498792 -42.80175781 66.89550781 C-45.42246352 64.38935509 -48.01520336 61.85720754 -50.59057236 59.30451584 C-51.57077655 58.34205566 -52.56045183 57.38913988 -53.55966568 56.44643021 C-61.31642606 49.10900496 -61.31642606 49.10900496 -61.61494446 44.83366394 C-61.12434544 42.48083597 -60.46486725 40.5424383 -59.4375 38.375 C-58.97214844 37.33472656 -58.50679687 36.29445312 -58.02734375 35.22265625 C-47.93495632 18.21113796 -33.72247631 6.08586645 -14.42529297 0.99243164 C-9.60575874 -0.00353192 -4.90635643 -0.07263174 0 0 Z " fill="#34A753" transform="translate(63.4375,-0.375)"/>
<path d="M0 0 C3.54434427 1.34455698 6.80799193 2.91228344 10.11328125 4.765625 C11.10110596 5.31847168 12.08893066 5.87131836 13.10668945 6.44091797 C14.69356567 7.33641357 14.69356567 7.33641357 16.3125 8.25 C17.42262451 8.87406738 18.53274902 9.49813477 19.67651367 10.14111328 C28.08873547 14.8853086 36.44194898 19.72679176 44.77368164 24.61083984 C52.40470761 29.08119198 60.06883757 33.49155603 67.75 37.875 C68.92399722 38.54564321 70.09798809 39.21629753 71.27197266 39.88696289 C76.69181797 42.98145972 82.11600532 46.06796782 87.55015564 49.13728333 C140.00764845 78.77078614 140.00764845 78.77078614 148.54418945 107.85400391 C151.17964421 120.26195639 150.14277762 135.42875035 145 147 C144.649375 147.86109375 144.29875 148.7221875 143.9375 149.609375 C136.77638909 165.62241467 123.36830167 175.10646484 108.375 183.125 C105.96603609 184.4338474 103.56115993 185.75012818 101.15625 187.06640625 C100.25119217 187.56015999 100.25119217 187.56015999 99.32785034 188.06388855 C93.4431302 191.28283037 87.65366899 194.65723009 81.875 198.0625 C73.80379246 202.80862088 65.68176079 207.44710271 57.5 212 C49.15754863 216.64466695 40.86645671 221.36577873 32.625 226.1875 C31.64192871 226.76258301 30.65885742 227.33766602 29.64599609 227.93017578 C25.80900412 230.17732821 21.97378477 232.4274691 18.140625 234.68115234 C15.47092108 236.24951018 12.7982316 237.81266516 10.125 239.375 C9.32787598 239.84574951 8.53075195 240.31649902 7.70947266 240.80151367 C2.22687435 244 2.22687435 244 0 244 C-1.26637268 242.71485901 -1.26637268 242.71485901 -2.80688477 240.82641602 C-8.217551 234.4705344 -14.18612241 228.66996806 -20.08984375 222.77734375 C-21.36119407 221.50531833 -22.63239604 220.23314461 -23.90345764 218.96083069 C-26.55698335 216.30583772 -29.21229094 213.65264357 -31.86889648 211.00073242 C-35.25566535 207.61966022 -38.63792393 204.23411742 -42.01885128 200.84720516 C-44.63973018 198.22269432 -47.26300892 195.60059256 -49.88699532 192.97918892 C-51.13432544 191.73252079 -52.38092731 190.48512352 -53.62675285 189.23695183 C-59.26830309 183.58710787 -64.8958839 177.98935491 -70.97267151 172.80271912 C-75.68116584 168.61588271 -80.05727349 164.06309145 -84.5 159.59765625 C-85.58693803 158.50884896 -86.67410015 157.42026534 -87.76147461 156.33189392 C-90.59783223 153.49175111 -93.43117164 150.6486164 -96.26385498 147.80480957 C-99.16494253 144.89342109 -102.06892713 141.98492533 -104.97265625 139.07617188 C-110.65124818 133.3869133 -116.32664916 127.69448501 -122 122 C-117.70647489 116.87196808 -113.21160758 112.0643985 -108.4765625 107.34375 C-107.77155609 106.63778687 -107.06654968 105.93182373 -106.34017944 105.20446777 C-104.85724622 103.72085798 -103.37306518 102.23849448 -101.88769531 100.75732422 C-99.63492295 98.5098994 -97.38752763 96.25719771 -95.140625 94.00390625 C-93.69042458 92.55436687 -92.23991388 91.10513783 -90.7890625 89.65625 C-90.12734039 88.99250366 -89.46561829 88.32875732 -88.78384399 87.64489746 C-88.14312958 87.00733521 -87.50241516 86.36977295 -86.84228516 85.71289062 C-86.29190582 85.16330688 -85.74152649 84.61372314 -85.17446899 84.04748535 C-83.22069531 82.20780724 -81.22343091 80.4512106 -79.19407654 78.69606018 C-75.3234538 75.32468909 -71.66499862 71.79446347 -68.05249023 68.15014648 C-67.40907684 67.50527283 -66.76566345 66.86039917 -66.10275269 66.19598389 C-64.72070591 64.81016246 -63.33981429 63.4231882 -61.95998955 62.03515434 C-59.77132078 59.83360136 -57.57943789 57.63529309 -55.38673401 55.4377594 C-50.73416217 50.77381962 -46.08554104 46.10595457 -41.4375 41.4375 C-36.04378784 36.02011899 -30.64843168 30.60439663 -25.24882698 25.19288826 C-23.09817312 23.03579168 -20.9505731 20.87568673 -18.80308533 18.71543884 C-17.47491139 17.38362985 -16.14659543 16.05196248 -14.81811523 14.72045898 C-14.22935104 14.12652847 -13.64058685 13.53259796 -13.03398132 12.92066956 C-9.62657461 9.51283528 -6.11572044 6.32889356 -2.38920689 3.27154636 C-0.86546338 2.02911807 -0.86546338 2.02911807 0 0 Z " fill="#FABB04" transform="translate(363,161)"/>
</svg>
